# xmcd
#
# Track frame offsets:
#	150
#	16215
#	38270
#	59792
#	73927
#	96887
#	123622
#	143117
#	163262
#	175127
#	195280
#	219022
#	238915
#	258592
#	272280
#	298670
#
# Disc length: 4265 seconds
#
# Revision: 2
# Processed by: cddbd v1.5.2PL0 Copyright (c) Steve Scherf et al.
# Submitted via: EasyCDDAExtractor 16.1.0.1
#
DISCID=ea10a710
DTITLE=Various Artist - Puistoblues 25th Anniversary Album - In The Mood Sinc
DTITLE=e 1978
DYEAR=2002
DGENRE=Blues
TTITLE0=Lonnie Mack - Double Whammy
TTITLE1=A. Collins, R. Cray and J. Copeland - T-Bone Shuffle
TTITLE2=Clarence "Gatemouth" Brown - Got My Mojo Working
TTITLE3=Michael Burks - Voodoo Spell
TTITLE4=Son Seals - Frigidaire Woman
TTITLE5=Junior Wells - Keep Your Hands Out of My Pockets
TTITLE6=Lil' Ed and Blues Imperials - What You See Is What You Get
TTITLE7=Shemekia Copeland - It's 2 A.M.
TTITLE8=Katie Webster - C.Q. Boogie
TTITLE9=Carey Bell - Low Down Dirty Shame
TTITLE10=Lucky Peterson - I'm Free
TTITLE11=Magic Slim and The Teardrops - Stranded On The Highway
TTITLE12=William Clarke - Pawnshop Bound
TTITLE13=Luther Johnson - Just Like Mama Said
TTITLE14=The Jimmy Johnson Blues Band - Your Turn To Cry
TTITLE15=Sonny Terry - Sonny's Whoopin' The Doop
EXTD=
EXTT0=
EXTT1=
EXTT2=
EXTT3=
EXTT4=
EXTT5=
EXTT6=
EXTT7=
EXTT8=
EXTT9=
EXTT10=
EXTT11=
EXTT12=
EXTT13=
EXTT14=
EXTT15=
PLAYORDER=
